<svg width="12" height="12" viewBox="0 0 12 12" fill="none" xmlns="http://www.w3.org/2000/svg">
<path d="M9.00008 3C8.69508 3 8.41508 2.825 8.27508 2.555L7.91508 1.83C7.68508 1.375 7.08508 1 6.57508 1H5.43008C4.91508 1 4.31508 1.375 4.08508 1.83L3.72508 2.555C3.58508 2.825 3.30508 3 3.00008 3C1.91508 3 1.05508 3.915 1.12508 4.995L1.38508 9.125C1.44508 10.155 2.00008 11 3.38008 11H8.62008C10.0001 11 10.5501 10.155 10.6151 9.125L10.8751 4.995C10.9451 3.915 10.0851 3 9.00008 3ZM5.25008 3.625H6.75008C6.95508 3.625 7.12508 3.795 7.12508 4C7.12508 4.205 6.95508 4.375 6.75008 4.375H5.25008C5.04508 4.375 4.87508 4.205 4.87508 4C4.87508 3.795 5.04508 3.625 5.25008 3.625ZM6.00008 9.06C5.07008 9.06 4.31008 8.305 4.31008 7.37C4.31008 6.435 5.06508 5.68 6.00008 5.68C6.93508 5.68 7.69008 6.435 7.69008 7.37C7.69008 8.305 6.93008 9.06 6.00008 9.06Z" fill="white"/>
</svg>
