<svg width="24" height="24" viewBox="0 0 24 24" fill="none" xmlns="http://www.w3.org/2000/svg">
<path d="M22 21.25C22 21.66 21.66 22 21.25 22H2.75C2.34 22 2 21.66 2 21.25C2 20.84 2.34 20.5 2.75 20.5H21.25C21.66 20.5 22 20.84 22 21.25Z" fill="#22DDD4"/>
<path d="M15.3904 4.52172L4.65043 15.2617C4.24043 15.6717 3.58043 15.6717 3.18043 15.2617H3.17043C1.78043 13.8617 1.78043 11.6017 3.17043 10.2117L10.3204 3.06172C11.7204 1.66172 13.9804 1.66172 15.3804 3.06172C15.7904 3.45172 15.7904 4.12172 15.3904 4.52172Z" fill="#22DDD4"/>
<path d="M20.8204 8.49031L17.7704 5.44031C17.3604 5.03031 16.7004 5.03031 16.3004 5.44031L5.56043 16.1803C5.15043 16.5803 5.15043 17.2403 5.56043 17.6503L8.61043 20.7103C10.0104 22.1003 12.2704 22.1003 13.6704 20.7103L20.8104 13.5603C22.2304 12.1603 22.2304 9.89031 20.8204 8.49031ZM12.7604 17.5203L11.5504 18.7403C11.3004 18.9903 10.8904 18.9903 10.6304 18.7403C10.3804 18.4903 10.3804 18.0803 10.6304 17.8203L11.8504 16.6003C12.0904 16.3603 12.5104 16.3603 12.7604 16.6003C13.0104 16.8503 13.0104 17.2803 12.7604 17.5203ZM16.7304 13.5503L14.2904 16.0003C14.0404 16.2403 13.6304 16.2403 13.3704 16.0003C13.1204 15.7503 13.1204 15.3403 13.3704 15.0803L15.8204 12.6303C16.0604 12.3903 16.4804 12.3903 16.7304 12.6303C16.9804 12.8903 16.9804 13.3003 16.7304 13.5503Z" fill="#22DDD4"/>
</svg>
