<svg width="24" height="24" viewBox="0 0 24 24" fill="none" xmlns="http://www.w3.org/2000/svg">
<path d="M21.5299 10.8689L20.0099 9.34891C19.7499 9.08891 19.5399 8.57891 19.5399 8.21891V6.05891C19.5399 5.17891 18.8199 4.45891 17.9399 4.45891H15.7899C15.4299 4.45891 14.9199 4.24891 14.6599 3.98891L13.1399 2.46891C12.5199 1.84891 11.4999 1.84891 10.8799 2.46891L9.33988 3.98891C9.08988 4.24891 8.57988 4.45891 8.20988 4.45891H6.05988C5.17988 4.45891 4.45988 5.17891 4.45988 6.05891V8.20891C4.45988 8.56891 4.24988 9.07891 3.98988 9.33891L2.46988 10.8589C1.84988 11.4789 1.84988 12.4989 2.46988 13.1189L3.98988 14.6389C4.24988 14.8989 4.45988 15.4089 4.45988 15.7689V17.9189C4.45988 18.7989 5.17988 19.5189 6.05988 19.5189H8.20988C8.56988 19.5189 9.07988 19.7289 9.33988 19.9889L10.8599 21.5089C11.4799 22.1289 12.4999 22.1289 13.1199 21.5089L14.6399 19.9889C14.8999 19.7289 15.4099 19.5189 15.7699 19.5189H17.9199C18.7999 19.5189 19.5199 18.7989 19.5199 17.9189V15.7689C19.5199 15.4089 19.7299 14.8989 19.9899 14.6389L21.5099 13.1189C22.1599 12.5089 22.1599 11.4889 21.5299 10.8689ZM7.99988 8.99891C7.99988 8.44891 8.44988 7.99891 8.99988 7.99891C9.54988 7.99891 9.99988 8.44891 9.99988 8.99891C9.99988 9.54891 9.55988 9.99891 8.99988 9.99891C8.44988 9.99891 7.99988 9.54891 7.99988 8.99891ZM9.52988 15.5289C9.37988 15.6789 9.18988 15.7489 8.99988 15.7489C8.80988 15.7489 8.61988 15.6789 8.46988 15.5289C8.17988 15.2389 8.17988 14.7589 8.46988 14.4689L14.4699 8.46891C14.7599 8.17891 15.2399 8.17891 15.5299 8.46891C15.8199 8.75891 15.8199 9.23891 15.5299 9.52891L9.52988 15.5289ZM14.9999 15.9989C14.4399 15.9989 13.9899 15.5489 13.9899 14.9989C13.9899 14.4489 14.4399 13.9989 14.9899 13.9989C15.5399 13.9989 15.9899 14.4489 15.9899 14.9989C15.9899 15.5489 15.5499 15.9989 14.9999 15.9989Z" fill="#FFCC00"/>
</svg>
