<svg width="24" height="24" viewBox="0 0 24 24" fill="none" xmlns="http://www.w3.org/2000/svg">
<path d="M2.99349 8.73667C3.65929 8.73667 3.99219 8.40041 3.99219 7.72788V5.45811C3.99219 4.96717 4.11325 4.60064 4.35536 4.35853C4.60419 4.11642 4.96399 3.99537 5.43476 3.99537H7.76506C8.43086 3.99537 8.76376 3.66247 8.76376 2.99667C8.76376 2.33759 8.43086 2.00806 7.76506 2.00806H5.31371C4.22422 2.00806 3.40037 2.28379 2.84218 2.83526C2.28398 3.38673 2.00488 4.20049 2.00488 5.27653V7.72788C2.00488 8.40041 2.33442 8.73667 2.99349 8.73667ZM21.0004 8.73667C21.6662 8.73667 21.9991 8.40041 21.9991 7.72788V5.27653C21.9991 4.20049 21.72 3.38673 21.1618 2.83526C20.6036 2.28379 19.7764 2.00806 18.6801 2.00806H16.2288C15.563 2.00806 15.2301 2.33759 15.2301 2.99667C15.2301 3.66247 15.563 3.99537 16.2288 3.99537H18.5591C19.0231 3.99537 19.3796 4.11642 19.6284 4.35853C19.884 4.60064 20.0117 4.96717 20.0117 5.45811V7.72788C20.0117 8.40041 20.3413 8.73667 21.0004 8.73667ZM5.31371 21.9921H7.76506C8.43086 21.9921 8.76376 21.6626 8.76376 21.0035C8.76376 20.3377 8.43086 20.0048 7.76506 20.0048H5.43476C4.96399 20.0048 4.60419 19.8838 4.35536 19.6417C4.11325 19.3996 3.99219 19.033 3.99219 18.5421V16.2723C3.99219 15.5998 3.65929 15.2635 2.99349 15.2635C2.33442 15.2635 2.00488 15.5998 2.00488 16.2723V18.7136C2.00488 19.7896 2.28398 20.6034 2.84218 21.1548C3.40037 21.713 4.22422 21.9921 5.31371 21.9921ZM16.2288 21.9921H18.6801C19.7764 21.9921 20.6036 21.713 21.1618 21.1548C21.72 20.6034 21.9991 19.7896 21.9991 18.7136V16.2723C21.9991 15.5998 21.6662 15.2635 21.0004 15.2635C20.3413 15.2635 20.0117 15.5998 20.0117 16.2723V18.5421C20.0117 19.033 19.884 19.3996 19.6284 19.6417C19.3796 19.8838 19.0231 20.0048 18.5591 20.0048H16.2288C15.563 20.0048 15.2301 20.3377 15.2301 21.0035C15.2301 21.6626 15.563 21.9921 16.2288 21.9921ZM8.20893 11.3293C8.45776 11.3293 8.65952 11.2486 8.8142 11.0871C8.97561 10.9257 9.05631 10.7206 9.05631 10.4718V9.09983C9.05631 8.851 8.97561 8.64588 8.8142 8.48447C8.65952 8.32307 8.45776 8.24236 8.20893 8.24236C7.96009 8.24236 7.75497 8.32307 7.59357 8.48447C7.43889 8.64588 7.36155 8.851 7.36155 9.09983V10.4718C7.36155 10.7206 7.43889 10.9257 7.59357 11.0871C7.75497 11.2486 7.96009 11.3293 8.20893 11.3293ZM11.1849 13.6898C11.1983 13.6898 11.2118 13.6898 11.2252 13.6898C11.2454 13.6898 11.2622 13.6898 11.2756 13.6898C11.8002 13.6898 12.2004 13.552 12.4761 13.2762C12.7518 13.0005 12.8897 12.6037 12.8897 12.0858V8.92834C12.8897 8.71986 12.8258 8.55173 12.698 8.42395C12.5703 8.29617 12.4021 8.23228 12.1936 8.23228C11.9852 8.23228 11.817 8.29617 11.6892 8.42395C11.5615 8.55173 11.4976 8.71986 11.4976 8.92834V12.1363C11.4976 12.1901 11.4841 12.2304 11.4572 12.2573C11.4303 12.2775 11.3967 12.2876 11.3563 12.2876H11.0335C10.8452 12.2876 10.6838 12.3549 10.5493 12.4894C10.4148 12.6171 10.3476 12.7752 10.3476 12.9635C10.3476 13.1922 10.4215 13.3704 10.5695 13.4981C10.7242 13.6259 10.9293 13.6898 11.1849 13.6898ZM15.7547 11.3293C15.9968 11.3293 16.1985 11.2486 16.3599 11.0871C16.5213 10.9257 16.602 10.7206 16.602 10.4718V9.09983C16.602 8.851 16.5213 8.64588 16.3599 8.48447C16.1985 8.32307 15.9968 8.24236 15.7547 8.24236C15.5058 8.24236 15.3007 8.32307 15.1393 8.48447C14.9846 8.64588 14.9073 8.851 14.9073 9.09983V10.4718C14.9073 10.7206 14.9846 10.9257 15.1393 11.0871C15.3007 11.2486 15.5058 11.3293 15.7547 11.3293ZM11.9414 17.0188C12.5467 17.0188 13.1419 16.8978 13.727 16.6557C14.3188 16.4068 14.8367 16.0605 15.2805 15.6166C15.3478 15.5494 15.3949 15.472 15.4218 15.3846C15.4554 15.2972 15.4722 15.203 15.4722 15.1021C15.4722 14.9004 15.4049 14.7356 15.2704 14.6078C15.1359 14.4733 14.9712 14.4061 14.7761 14.4061C14.5878 14.4061 14.4029 14.5002 14.2213 14.6885C13.9523 14.971 13.616 15.1996 13.2125 15.3745C12.809 15.5494 12.3853 15.6368 11.9414 15.6368C11.5245 15.6368 11.1109 15.5527 10.7006 15.3846C10.2971 15.2097 9.95077 14.9777 9.66158 14.6885C9.57415 14.6078 9.49009 14.5406 9.40938 14.4868C9.32868 14.433 9.2278 14.4061 9.10675 14.4061C8.90499 14.4061 8.73686 14.4733 8.60235 14.6078C8.46785 14.7356 8.4006 14.9004 8.4006 15.1021C8.4006 15.1896 8.41741 15.277 8.45104 15.3644C8.48466 15.4451 8.5351 15.5224 8.60235 15.5964C8.99914 16.0605 9.49681 16.4135 10.0954 16.6557C10.7006 16.8978 11.316 17.0188 11.9414 17.0188Z" fill="#1C1C1E"/>
</svg>
