<svg width="24" height="24" viewBox="0 0 24 24" fill="none" xmlns="http://www.w3.org/2000/svg">
<path d="M19.17 6.64C18.74 4.47 17.13 3.52 14.89 3.52H6.10996C3.46996 3.52 1.70996 4.84 1.70996 7.92V13.07C1.70996 15.29 2.61996 16.59 4.11996 17.15C4.33996 17.23 4.57996 17.3 4.82996 17.34C5.22996 17.43 5.65996 17.47 6.10996 17.47H14.9C17.54 17.47 19.3 16.15 19.3 13.07V7.92C19.3 7.45 19.26 7.03 19.17 6.64ZM5.52996 12C5.52996 12.41 5.18996 12.75 4.77996 12.75C4.36996 12.75 4.02996 12.41 4.02996 12V9C4.02996 8.59 4.36996 8.25 4.77996 8.25C5.18996 8.25 5.52996 8.59 5.52996 9V12ZM10.5 13.14C9.03996 13.14 7.85996 11.96 7.85996 10.5C7.85996 9.04 9.03996 7.86 10.5 7.86C11.96 7.86 13.14 9.04 13.14 10.5C13.14 11.96 11.96 13.14 10.5 13.14ZM16.96 12C16.96 12.41 16.62 12.75 16.21 12.75C15.8 12.75 15.46 12.41 15.46 12V9C15.46 8.59 15.8 8.25 16.21 8.25C16.62 8.25 16.96 8.59 16.96 9V12Z" fill="white"/>
<path d="M22.2998 10.92V16.07C22.2998 19.15 20.5398 20.48 17.8898 20.48H9.10977C8.35977 20.48 7.68977 20.37 7.10977 20.15C6.63977 19.98 6.22977 19.73 5.89977 19.41C5.71977 19.24 5.85977 18.97 6.10977 18.97H14.8898C18.5898 18.97 20.7898 16.77 20.7898 13.08V7.92C20.7898 7.68 21.0598 7.53 21.2298 7.71C21.9098 8.43 22.2998 9.48 22.2998 10.92Z" fill="white"/>
</svg>
