<svg width="12" height="12" viewBox="0 0 12 12" fill="none" xmlns="http://www.w3.org/2000/svg">
<path d="M9.91523 4.3499L7.65023 2.0849C7.17523 1.6099 6.52023 1.3549 5.85023 1.3899L3.35023 1.5099C2.35023 1.5549 1.55523 2.3499 1.50523 3.3449L1.38523 5.8449C1.35523 6.5149 1.60523 7.1699 2.08023 7.6449L4.34523 9.9099C5.27523 10.8399 6.78523 10.8399 7.72023 9.9099L9.91523 7.7149C10.8502 6.7899 10.8502 5.2799 9.91523 4.3499ZM4.75023 6.1899C3.95523 6.1899 3.31023 5.5449 3.31023 4.7499C3.31023 3.9549 3.95523 3.3099 4.75023 3.3099C5.54523 3.3099 6.19023 3.9549 6.19023 4.7499C6.19023 5.5449 5.54523 6.1899 4.75023 6.1899Z" fill="#F10014"/>
</svg>
