<svg width="24" height="24" viewBox="0 0 24 24" fill="none" xmlns="http://www.w3.org/2000/svg">
<path d="M13.4089 3.74112C12.6764 2.8171 11.3236 2.8171 10.5911 3.74112C8.61256 6.23683 5.25 11.0234 5.25 14.7289C5.25 18.8708 7.85812 21.4789 12 21.4789C16.1419 21.4789 18.75 18.8708 18.75 14.7289C18.75 11.0234 15.3874 6.23683 13.4089 3.74112ZM13.3112 19.0007C13.0035 19.0453 12.75 18.7892 12.75 18.4783C12.75 18.1679 13.0039 17.9218 13.3081 17.8599C13.8457 17.7505 14.3441 17.4854 14.7378 17.0917C15.1315 16.698 15.3966 16.1996 15.506 15.662C15.5679 15.3578 15.814 15.1039 16.1244 15.1039C16.4353 15.1039 16.6913 15.3574 16.6468 15.6651C16.5255 16.5015 16.1376 17.2823 15.533 17.8869C14.9284 18.4915 14.1476 18.8794 13.3112 19.0007Z" fill="#32ADE6"/>
</svg>
