<svg width="24" height="24" viewBox="0 0 24 24" fill="none" xmlns="http://www.w3.org/2000/svg">
<path d="M22 4.85018V16.7402C22 17.7102 21.21 18.6002 20.24 18.7202L19.93 18.7602C18.29 18.9802 15.98 19.6602 14.12 20.4402C13.47 20.7102 12.75 20.2202 12.75 19.5102V5.60018C12.75 5.23018 12.96 4.89018 13.29 4.71018C15.12 3.72018 17.89 2.84018 19.77 2.68018H19.83C21.03 2.68018 22 3.65018 22 4.85018Z" fill="#1C1C1E"/>
<path d="M10.7102 4.71018C8.88023 3.72018 6.11023 2.84018 4.23023 2.68018H4.16023C2.96023 2.68018 1.99023 3.65018 1.99023 4.85018V16.7402C1.99023 17.7102 2.78023 18.6002 3.75023 18.7202L4.06023 18.7602C5.70023 18.9802 8.01023 19.6602 9.87023 20.4402C10.5202 20.7102 11.2402 20.2202 11.2402 19.5102V5.60018C11.2402 5.22018 11.0402 4.89018 10.7102 4.71018ZM5.00023 7.74018H7.25023C7.66023 7.74018 8.00023 8.08018 8.00023 8.49018C8.00023 8.91018 7.66023 9.24018 7.25023 9.24018H5.00023C4.59023 9.24018 4.25023 8.91018 4.25023 8.49018C4.25023 8.08018 4.59023 7.74018 5.00023 7.74018ZM8.00023 12.2402H5.00023C4.59023 12.2402 4.25023 11.9102 4.25023 11.4902C4.25023 11.0802 4.59023 10.7402 5.00023 10.7402H8.00023C8.41023 10.7402 8.75023 11.0802 8.75023 11.4902C8.75023 11.9102 8.41023 12.2402 8.00023 12.2402Z" fill="#1C1C1E"/>
</svg>
