<svg width="70" height="76" viewBox="0 0 70 76" fill="none" xmlns="http://www.w3.org/2000/svg">
<g filter="url(#filter0_ddd_310_9982)">
<path d="M46.8746 9.9V6C46.8746 4.975 46.0246 4.125 44.9996 4.125C43.9746 4.125 43.1246 4.975 43.1246 6V9.75H26.8746V6C26.8746 4.975 26.0246 4.125 24.9996 4.125C23.9746 4.125 23.1246 4.975 23.1246 6V9.9C16.3746 10.525 13.0996 14.55 12.5996 20.525C12.5496 21.25 13.1496 21.85 13.8496 21.85H56.1496C56.8746 21.85 57.4746 21.225 57.3996 20.525C56.8996 14.55 53.6246 10.525 46.8746 9.9Z" fill="#F10014"/>
<path d="M55 25.5996H15C13.625 25.5996 12.5 26.7246 12.5 28.0996V43.4996C12.5 50.9996 16.25 55.9996 25 55.9996H45C53.75 55.9996 57.5 50.9996 57.5 43.4996V28.0996C57.5 26.7246 56.375 25.5996 55 25.5996ZM42.1 38.4746L40.85 39.7496H40.825L33.25 47.3246C32.925 47.6496 32.25 47.9996 31.775 48.0496L28.4 48.5496C27.175 48.7246 26.325 47.8496 26.5 46.6496L26.975 43.2496C27.05 42.7746 27.375 42.1246 27.7 41.7746L35.3 34.1996L36.55 32.9246C37.375 32.0996 38.3 31.4996 39.3 31.4996C40.15 31.4996 41.075 31.8996 42.1 32.9246C44.35 35.1746 43.625 36.9496 42.1 38.4746Z" fill="#F10014"/>
</g>
<defs>
<filter id="filter0_ddd_310_9982" x="-7" y="-3" width="84" height="84" filterUnits="userSpaceOnUse" color-interpolation-filters="sRGB">
<feFlood flood-opacity="0" result="BackgroundImageFix"/>
<feColorMatrix in="SourceAlpha" type="matrix" values="0 0 0 0 0 0 0 0 0 0 0 0 0 0 0 0 0 0 127 0" result="hardAlpha"/>
<feOffset dy="3"/>
<feGaussianBlur stdDeviation="2"/>
<feComposite in2="hardAlpha" operator="out"/>
<feColorMatrix type="matrix" values="0 0 0 0 0.945098 0 0 0 0 0 0 0 0 0 0.0784314 0 0 0 0.08 0"/>
<feBlend mode="normal" in2="BackgroundImageFix" result="effect1_dropShadow_310_9982"/>
<feColorMatrix in="SourceAlpha" type="matrix" values="0 0 0 0 0 0 0 0 0 0 0 0 0 0 0 0 0 0 127 0" result="hardAlpha"/>
<feOffset dy="6"/>
<feGaussianBlur stdDeviation="4"/>
<feComposite in2="hardAlpha" operator="out"/>
<feColorMatrix type="matrix" values="0 0 0 0 0.945098 0 0 0 0 0 0 0 0 0 0.0784314 0 0 0 0.12 0"/>
<feBlend mode="normal" in2="effect1_dropShadow_310_9982" result="effect2_dropShadow_310_9982"/>
<feColorMatrix in="SourceAlpha" type="matrix" values="0 0 0 0 0 0 0 0 0 0 0 0 0 0 0 0 0 0 127 0" result="hardAlpha"/>
<feOffset dy="8"/>
<feGaussianBlur stdDeviation="6"/>
<feComposite in2="hardAlpha" operator="out"/>
<feColorMatrix type="matrix" values="0 0 0 0 0.945098 0 0 0 0 0 0 0 0 0 0.0784314 0 0 0 0.16 0"/>
<feBlend mode="normal" in2="effect2_dropShadow_310_9982" result="effect3_dropShadow_310_9982"/>
<feBlend mode="normal" in="SourceGraphic" in2="effect3_dropShadow_310_9982" result="shape"/>
</filter>
</defs>
</svg>
