<svg width="20" height="20" viewBox="0 0 20 20" fill="none" xmlns="http://www.w3.org/2000/svg">
<path d="M18.3087 15.2743C18.3087 15.5743 18.242 15.8827 18.1003 16.1827C17.9587 16.4827 17.7753 16.766 17.5337 17.0327C17.1253 17.4827 16.6753 17.8077 16.167 18.016C15.667 18.2243 15.1253 18.3327 14.542 18.3327C13.692 18.3327 12.7837 18.1327 11.8253 17.7243C10.867 17.316 9.90866 16.766 8.95866 16.0744C8.00033 15.3744 7.09199 14.5993 6.22533 13.741C5.36699 12.8743 4.59199 11.966 3.90033 11.016C3.21699 10.066 2.66699 9.11602 2.26699 8.17435C1.86699 7.22435 1.66699 6.31602 1.66699 5.44935C1.66699 4.88268 1.76699 4.34102 1.96699 3.84102C2.16699 3.33268 2.48366 2.86602 2.92533 2.44935C3.45866 1.92435 4.04199 1.66602 4.65866 1.66602C4.89199 1.66602 5.12533 1.71602 5.33366 1.81602C5.55033 1.91602 5.74199 2.06602 5.89199 2.28268L7.82533 5.00768C7.97533 5.21602 8.08366 5.40768 8.15866 5.59102C8.23366 5.76602 8.27533 5.94102 8.27533 6.09935C8.27533 6.29935 8.21699 6.49935 8.10033 6.69102C7.99199 6.88268 7.83366 7.08268 7.63366 7.28268L7.00033 7.94102C6.90866 8.03268 6.86699 8.14102 6.86699 8.27435C6.86699 8.34102 6.87533 8.39935 6.89199 8.46602C6.91699 8.53268 6.94199 8.58268 6.95866 8.63268C7.10866 8.90768 7.36699 9.26602 7.73366 9.69935C8.10866 10.1327 8.50866 10.5743 8.94199 11.016C9.39199 11.4577 9.82533 11.866 10.267 12.241C10.7003 12.6077 11.0587 12.8577 11.342 13.0077C11.3837 13.0243 11.4337 13.0493 11.492 13.0743C11.5587 13.0993 11.6253 13.1077 11.7003 13.1077C11.842 13.1077 11.9503 13.0577 12.042 12.966L12.6753 12.341C12.8837 12.1327 13.0837 11.9743 13.2753 11.8743C13.467 11.7577 13.6587 11.6993 13.867 11.6993C14.0253 11.6993 14.192 11.7327 14.3753 11.8077C14.5587 11.8827 14.7503 11.991 14.9587 12.1327L17.717 14.091C17.9337 14.241 18.0837 14.416 18.1753 14.6243C18.2587 14.8327 18.3087 15.041 18.3087 15.2743Z" fill="#007AFF"/>
</svg>
