<svg width="32" height="32" viewBox="0 0 32 32" fill="none" xmlns="http://www.w3.org/2000/svg">
<path d="M24.6663 16.8662V21.7995C24.6663 25.9595 20.7863 29.3329 15.9997 29.3329C11.213 29.3329 7.33301 25.9595 7.33301 21.7995V16.8662C7.33301 21.0262 11.213 23.9995 15.9997 23.9995C20.7863 23.9995 24.6663 21.0262 24.6663 16.8662Z" fill="white"/>
<path opacity="0.4" d="M24.6663 10.2002V16.8669C24.6663 21.0269 20.7863 24.0002 15.9997 24.0002C11.213 24.0002 7.33301 21.0269 7.33301 16.8669V10.2002C7.33301 11.4135 7.66634 12.5335 8.25301 13.4935C9.67968 15.8402 12.613 17.3335 15.9997 17.3335C19.3863 17.3335 22.3197 15.8402 23.7463 13.4935C24.333 12.5335 24.6663 11.4135 24.6663 10.2002Z" fill="white"/>
<path d="M24.6663 10.2003C24.6663 11.4137 24.333 12.5337 23.7463 13.4937C22.3197 15.8403 19.3863 17.3337 15.9997 17.3337C12.613 17.3337 9.67968 15.8403 8.25301 13.4937C7.66634 12.5337 7.33301 11.4137 7.33301 10.2003C7.33301 6.04033 11.213 2.66699 15.9997 2.66699C18.3997 2.66699 20.5597 3.50699 22.133 4.86699C23.693 6.24033 24.6663 8.12033 24.6663 10.2003Z" fill="white"/>
</svg>
