<svg width="60" height="60" viewBox="0 0 60 60" fill="none" xmlns="http://www.w3.org/2000/svg">
<path d="M30 19.375C25.275 19.375 24.375 21.35 24.375 25V26.55H35.625V25C35.625 21.35 34.725 19.375 30 19.375Z" fill="#F10014"/>
<path d="M30 37.75C31.5188 37.75 32.75 36.5188 32.75 35C32.75 33.4812 31.5188 32.25 30 32.25C28.4812 32.25 27.25 33.4812 27.25 35C27.25 36.5188 28.4812 37.75 30 37.75Z" fill="#F10014"/>
<path d="M30 5C16.2 5 5 16.2 5 30C5 43.8 16.2 55 30 55C43.8 55 55 43.8 55 30C55 16.2 43.8 5 30 5ZM43.45 36.25C43.45 41.75 41.75 43.45 36.25 43.45H23.75C18.25 43.45 16.55 41.75 16.55 36.25V33.75C16.55 29.475 17.575 27.5 20.625 26.825V25C20.625 22.675 20.625 15.625 30 15.625C39.375 15.625 39.375 22.675 39.375 25V26.825C42.425 27.5 43.45 29.475 43.45 33.75V36.25Z" fill="#F10014"/>
</svg>
