<svg width="24" height="24" viewBox="0 0 24 24" fill="none" xmlns="http://www.w3.org/2000/svg">
<path d="M19.17 6.63953C18.74 4.46953 17.13 3.51953 14.89 3.51953H6.10996C3.46996 3.51953 1.70996 4.83953 1.70996 7.91953V13.0695C1.70996 15.2895 2.61996 16.5895 4.11996 17.1495C4.33996 17.2295 4.57996 17.2995 4.82996 17.3395C5.22996 17.4295 5.65996 17.4695 6.10996 17.4695H14.9C17.54 17.4695 19.3 16.1495 19.3 13.0695V7.91953C19.3 7.44953 19.26 7.02953 19.17 6.63953ZM5.52996 11.9995C5.52996 12.4095 5.18996 12.7495 4.77996 12.7495C4.36996 12.7495 4.02996 12.4095 4.02996 11.9995V8.99953C4.02996 8.58953 4.36996 8.24953 4.77996 8.24953C5.18996 8.24953 5.52996 8.58953 5.52996 8.99953V11.9995ZM10.5 13.1395C9.03996 13.1395 7.85996 11.9595 7.85996 10.4995C7.85996 9.03953 9.03996 7.85953 10.5 7.85953C11.96 7.85953 13.14 9.03953 13.14 10.4995C13.14 11.9595 11.96 13.1395 10.5 13.1395ZM16.96 11.9995C16.96 12.4095 16.62 12.7495 16.21 12.7495C15.8 12.7495 15.46 12.4095 15.46 11.9995V8.99953C15.46 8.58953 15.8 8.24953 16.21 8.24953C16.62 8.24953 16.96 8.58953 16.96 8.99953V11.9995Z" fill="#30B0C7"/>
<path d="M22.2998 10.9203V16.0703C22.2998 19.1503 20.5398 20.4803 17.8898 20.4803H9.10977C8.35977 20.4803 7.68977 20.3703 7.10977 20.1503C6.63977 19.9803 6.22977 19.7303 5.89977 19.4103C5.71977 19.2403 5.85977 18.9703 6.10977 18.9703H14.8898C18.5898 18.9703 20.7898 16.7703 20.7898 13.0803V7.92028C20.7898 7.68028 21.0598 7.53028 21.2298 7.71028C21.9098 8.43028 22.2998 9.48028 22.2998 10.9203Z" fill="#30B0C7"/>
</svg>
