<svg width="69" height="72" viewBox="0 0 69 72" fill="none" xmlns="http://www.w3.org/2000/svg">
<g filter="url(#filter0_ddd_390_13531)">
<path d="M18.5 37.5C12.975 37.5 8.5 41.975 8.5 47.5C8.5 49.375 9.025 51.15 9.95 52.65C11.675 55.55 14.85 57.5 18.5 57.5C22.15 57.5 25.325 55.55 27.05 52.65C27.975 51.15 28.5 49.375 28.5 47.5C28.5 41.975 24.025 37.5 18.5 37.5ZM22.225 49.325H20.375V51.275C20.375 52.3 19.525 53.15 18.5 53.15C17.475 53.15 16.625 52.3 16.625 51.275V49.325H14.775C13.75 49.325 12.9 48.475 12.9 47.45C12.9 46.425 13.75 45.575 14.775 45.575H16.625V43.8C16.625 42.775 17.475 41.925 18.5 41.925C19.525 41.925 20.375 42.775 20.375 43.8V45.575H22.225C23.25 45.575 24.1 46.425 24.1 47.45C24.1 48.475 23.275 49.325 22.225 49.325Z" fill="#F10014"/>
<path d="M59.75 31.25H53.5C50.75 31.25 48.5 33.5 48.5 36.25C48.5 39 50.75 41.25 53.5 41.25H59.75C60.45 41.25 61 40.7 61 40V32.5C61 31.8 60.45 31.25 59.75 31.25Z" fill="#F10014"/>
<path d="M47.325 13.5004C48.075 14.2254 47.45 15.3504 46.4 15.3504L25.7 15.3254C24.5 15.3254 23.9 13.8754 24.75 13.0254L29.125 8.62539C32.825 4.95039 38.8 4.95039 42.5 8.62539L47.225 13.4004C47.25 13.4254 47.3 13.4754 47.325 13.5004Z" fill="#F10014"/>
<path d="M60.6754 46.65C59.1504 51.8 54.7504 55 48.7504 55H32.5004C31.5254 55 30.9004 53.925 31.3004 53.025C32.0504 51.275 32.5254 49.3 32.5254 47.5C32.5254 39.925 26.3504 33.75 18.7754 33.75C16.8754 33.75 15.0254 34.15 13.3254 34.9C12.4004 35.3 11.2754 34.675 11.2754 33.675V30C11.2754 23.2 15.3754 18.45 21.7504 17.65C22.3754 17.55 23.0504 17.5 23.7504 17.5H48.7504C49.4004 17.5 50.0254 17.525 50.6254 17.625C55.6754 18.2 59.3254 21.275 60.6754 25.85C60.9254 26.675 60.3254 27.5 59.4754 27.5H53.7504C48.3254 27.5 44.0254 32.45 45.2004 38.075C46.0254 42.175 49.8254 45 54.0004 45H59.4754C60.3504 45 60.9254 45.85 60.6754 46.65Z" fill="#F10014"/>
</g>
<defs>
<filter id="filter0_ddd_390_13531" x="-2" y="-2" width="76" height="76" filterUnits="userSpaceOnUse" color-interpolation-filters="sRGB">
<feFlood flood-opacity="0" result="BackgroundImageFix"/>
<feColorMatrix in="SourceAlpha" type="matrix" values="0 0 0 0 0 0 0 0 0 0 0 0 0 0 0 0 0 0 127 0" result="hardAlpha"/>
<feOffset dy="1.5"/>
<feGaussianBlur stdDeviation="1"/>
<feColorMatrix type="matrix" values="0 0 0 0 0.945098 0 0 0 0 0 0 0 0 0 0.0784314 0 0 0 0.08 0"/>
<feBlend mode="normal" in2="BackgroundImageFix" result="effect1_dropShadow_390_13531"/>
<feColorMatrix in="SourceAlpha" type="matrix" values="0 0 0 0 0 0 0 0 0 0 0 0 0 0 0 0 0 0 127 0" result="hardAlpha"/>
<feOffset dy="3"/>
<feGaussianBlur stdDeviation="2"/>
<feColorMatrix type="matrix" values="0 0 0 0 0.945098 0 0 0 0 0 0 0 0 0 0.0784314 0 0 0 0.12 0"/>
<feBlend mode="normal" in2="effect1_dropShadow_390_13531" result="effect2_dropShadow_390_13531"/>
<feColorMatrix in="SourceAlpha" type="matrix" values="0 0 0 0 0 0 0 0 0 0 0 0 0 0 0 0 0 0 127 0" result="hardAlpha"/>
<feOffset dy="6"/>
<feGaussianBlur stdDeviation="4"/>
<feColorMatrix type="matrix" values="0 0 0 0 0.945098 0 0 0 0 0 0 0 0 0 0.0784314 0 0 0 0.16 0"/>
<feBlend mode="normal" in2="effect2_dropShadow_390_13531" result="effect3_dropShadow_390_13531"/>
<feBlend mode="normal" in="SourceGraphic" in2="effect3_dropShadow_390_13531" result="shape"/>
</filter>
</defs>
</svg>
